<?xml version="1.0" standalone="no"?><!DOCTYPE svg PUBLIC "-//W3C//DTD SVG 1.1//EN" "http://www.w3.org/Graphics/SVG/1.1/DTD/svg11.dtd"><svg t="1777968750772" class="icon" viewBox="0 0 1024 1024" version="1.1" xmlns="http://www.w3.org/2000/svg" p-id="2927" xmlns:xlink="http://www.w3.org/1999/xlink" width="200" height="200"><path d="M548.864 190.464c-9.728-1.024-18.432 5.632-19.456 15.36-1.024 9.728 5.632 17.92 15.36 18.944h3.584c9.728 0.512 18.432-6.656 18.944-16.384v-0.512c0.512-10.24-8.192-17.92-18.432-17.408zM335.36 775.168l1.024 12.288h146.944l1.024-12.288 1.536-11.776H333.824z" fill="#F53415" p-id="2928"></path><path d="M896 0H128C42.496 0 0 42.496 0 128v768c0 85.504 42.496 128 128 128h768c85.504 0 128-42.496 128-128V128c0-85.504-42.496-128-128-128zM352.768 840.704c-13.312 29.184-35.328 55.808-45.568 55.808h-9.216l9.216-14.848c7.168-13.312 12.8-27.648 16.896-42.496v0.512c7.68-27.648 6.144-27.648 23.04-27.648 15.872 0 16.896 4.096 5.632 28.672z m69.12-2.56c0 30.72-1.024 35.84-10.24 44.544-13.312 12.8-38.4 18.432-38.4 8.704 0.512-4.608 4.096-8.704 8.704-9.728 9.216-3.072 13.824-19.456 13.824-53.76V803.84H353.28c-15.36 0.512-30.72 0-46.08-1.536-1.024-8.704-1.024-17.92 0-26.624l1.536-25.088h202.24V803.84H421.888v34.304z m90.112 57.344c-8.192-2.56-14.848-7.168-19.968-13.824-14.848-18.944-26.624-40.96-33.28-64l-1.024-0.512c0-4.608 4.608-6.656 14.848-6.656 15.36 0 15.872 1.536 21.504 23.04 3.072 14.848 8.704 29.184 15.872 42.496 9.728 18.432 9.728 19.456 2.048 19.456z m-101.888-158.72c-96.256 0-111.104-1.536-111.104-6.656s8.704-6.656 46.592-6.656 47.616-1.024 49.664-6.656c3.584-4.608 9.728-7.168 15.36-6.656 8.192 0 12.8 1.024 12.8 6.656 0 5.12 8.192 6.656 48.64 6.656s49.152 0 49.152 6.656-14.848 6.656-111.104 6.656z m136.704-97.792h-10.24c0-19.968 1.536-39.424 2.56-59.904-4.096 1.536-7.68 3.584-11.264 5.632-6.144 5.12-12.288 10.24-17.92 15.872-10.24 10.752-21.504 21.504-30.72 32.256-6.144 6.656-8.192 7.68-19.456 5.12l38.4-65.536c-12.288-2.048-23.04-9.728-28.16-21.504-3.072-7.68-3.072-16.384 0-24.576 0 2.56 1.024 5.632 2.048 8.704 3.072 13.312 15.872 21.504 29.184 18.432 0.512 0 1.536-0.512 2.048-0.512 4.096-1.536 7.68-4.096 10.24-7.68 12.8-21.504 24.576-40.96 36.864-61.44 1.536-3.584 5.12-5.12 8.704-4.096 19.456 4.096 39.936 4.096 59.392 0 4.096-1.024 8.704-3.072 13.312-4.608v162.816h1.024-14.336c-1.024 0-3.072-2.56-3.584-4.096-3.584-13.824-6.144-27.648-10.24-40.96-1.536-5.12-4.096-10.24-7.168-15.36-2.56-5.12-8.704-7.168-13.824-4.608-1.536 1.024-3.072 2.048-4.096 3.584-5.12 6.656-9.728 13.824-12.8 21.504-4.608 11.264-8.192 22.528-11.264 34.304-2.048 4.608-3.584 7.168-8.704 6.656z m69.632 184.32c-9.216 30.72-40.96 74.752-53.248 74.752-5.12 0-4.096-5.12 4.096-21.504 6.656-12.8 11.264-26.624 14.336-40.96 1.024-7.168 3.072-14.336 5.12-21.504l-0.512 2.56c1.024-2.048 9.216-3.072 17.408-3.072 14.336 0 15.36 1.024 12.8 9.728z m152.064 72.192c-9.216 0-33.792-30.208-45.568-56.32-4.096-8.192-7.68-16.896-10.752-25.6h-0.512l1.024-0.512v0.512h15.36c15.36 1.024 15.872 2.048 23.552 29.184 3.584 12.8 9.216 25.6 15.36 37.376 9.728 13.312 11.264 15.36 1.536 15.36z m-66.56-157.696h-76.8l-11.776 24.064c-5.12 8.192-8.192 17.408-9.216 26.624 8.192 2.56 16.384 3.072 24.576 2.56h21.504v-19.968c0-19.968 0-19.968 15.36-19.968s15.36 0.512 16.896 18.944l3.584 17.92 43.52 1.536c33.792 1.024 42.496 2.048 42.496 7.68 0 5.12-8.704 6.656-44.544 6.656h-44.544v33.28c0 28.16-1.024 34.816-9.728 44.544-11.264 13.312-38.912 20.992-38.912 11.264 1.024-5.12 4.096-9.216 8.704-11.776 7.68-4.608 9.216-10.24 9.216-40.96v-35.84H609.28c-26.112 0-42.496-1.536-42.496-4.608 3.584-10.752 8.192-20.992 13.312-30.72 5.12-9.216 9.216-18.944 13.312-29.184 0-2.048-7.68-2.048-17.92-2.048-12.8 0-17.92-2.048-17.92-6.656s5.12-6.656 21.504-6.656 23.04-1.536 24.576-6.656v1.024c2.048-4.096 5.632-6.656 18.432-6.656s14.848 0 12.8 6.656c-2.048 6.656 8.704 6.656 70.656 6.656s73.216 0 73.216 6.656c0 5.632-11.264 5.632-76.8 5.632z m141.312-506.368c-3.584 24.064-11.264 47.104-22.528 69.12-3.584 6.144-8.704 11.264-15.36 13.824-14.848 8.192-31.232 13.312-48.128 16.384-46.08 9.728-93.696 6.656-138.24-8.704-26.112-10.24-49.152-26.624-68.096-47.104-1.536-2.56-4.096-4.608-6.144-6.144-2.56-1.024-7.168-2.56-9.216 0-2.048 2.048-3.072 5.12-2.56 8.192 1.024 3.584 3.072 6.656 5.632 9.216 27.648 30.72 64 52.224 104.448 61.44 48.128 11.776 98.816 10.24 145.92-5.12 2.56-1.024 5.632-2.048 8.192-3.072 2.56-1.536 5.632-2.56 8.704-3.072-5.12 7.68-10.24 15.872-15.872 23.04-35.84 48.64-87.04 84.48-145.408 101.376-37.888 10.24-77.824 10.24-115.2 0-63.488-15.872-122.88-45.056-173.568-86.528-16.384-12.8-30.208-28.16-40.96-46.08-4.096-6.656-7.168-13.824-9.216-21.504-1.536-6.144-4.096-10.24-9.216-11.776l-0.512-0.512c0 13.824 2.56 27.648 3.072 41.472 1.536 24.064-9.728 47.616-30.208 60.928-15.872 11.776-33.792 19.968-52.736 24.576-15.36 4.096-31.232-4.608-35.328-19.968-1.536-5.12-1.536-10.752 0-15.36 3.072-12.8 7.68-25.6 14.336-36.864 15.36-28.16 27.136-57.856 34.816-89.088 1.536-5.632 3.584-11.264 6.144-16.896 4.608-9.728 14.848-14.336 25.088-11.264 7.168 2.048 14.336 5.12 21.504 8.704 10.24 5.12 21.504 11.776 30.72 17.408 6.144-6.656 12.288-13.824 18.944-20.48 23.04-20.992 49.152-38.4 77.824-50.688 45.056-21.504 92.16-37.888 140.8-48.64 23.04-4.608 46.08-7.68 69.12-9.728 27.648-2.048 55.296-3.072 82.944-2.56 35.84-1.024 71.68 6.656 103.936 21.504 17.92 6.656 31.232 22.528 35.84 40.96 2.048 14.336 2.048 28.672 0.512 43.008z" fill="#F53415" p-id="2929"></path><path d="M802.816 149.504c-12.8-5.12-26.624-7.68-40.96-7.68-7.68 0-15.36 0-22.528 2.048-11.264 1.536-22.016 5.632-31.232 12.8-5.632 3.584-7.168 10.752-4.096 16.384 1.536 2.048 3.584 4.096 5.632 5.12 3.584 2.048 7.68 3.584 11.264 4.608 17.92 4.096 36.352 4.608 54.784 1.536 9.216-1.536 18.432-3.584 27.136-7.68 6.656-2.048 10.752-8.192 10.24-14.848 1.024-7.168-5.12-9.728-10.24-12.288z" fill="#F53415" p-id="2930"></path></svg>