<svg width="32" height="32" viewBox="0 0 32 32" fill="none" xmlns="http://www.w3.org/2000/svg">
<rect width="32" height="32" rx="10" fill="#00665F"/>
<path d="M13.123 14.7979C13.3442 15.192 13.5557 15.5389 13.9404 15.8369C14.402 16.231 15.152 16.2978 15.873 16.2979H17.1328L19.1709 20H13.9785C13.3153 20 12.6616 19.9809 12.0176 19.8271C11.3638 19.6637 10.8062 19.4037 10.2773 19.0098C9.1716 18.2213 8.56524 17.1441 7.93066 15.9902C7.2 14.6827 6.47886 13.3465 5.75781 12.0293H11.5947C11.6747 12.1694 13.0445 14.6697 13.123 14.7979ZM26.249 20H19.9609L17.9229 16.2881H24.2012L26.249 20ZM21.8438 12L23.8828 15.6924H17.585L15.5557 12H21.8438Z" fill="white"/>
</svg>
